<?xml version="1.0" encoding="UTF-8" standalone="no"?>
<!-- Created with Inkscape (http://www.inkscape.org/) -->

<svg
   xmlns:dc="http://purl.org/dc/elements/1.1/"
   xmlns:cc="http://creativecommons.org/ns#"
   xmlns:rdf="http://www.w3.org/1999/02/22-rdf-syntax-ns#"
   xmlns:svg="http://www.w3.org/2000/svg"
   xmlns="http://www.w3.org/2000/svg"
   xmlns:sodipodi="http://sodipodi.sourceforge.net/DTD/sodipodi-0.dtd"
   xmlns:inkscape="http://www.inkscape.org/namespaces/inkscape"
   width="303.30707"
   height="190.98425"
   id="svg7963"
   version="1.1"
   
   >
  <defs
     id="defs7965" />
  <sodipodi:namedview
     id="base"
     pagecolor="#ffffff"
     bordercolor="#666666"
     borderopacity="1.0"
     
     
     
     
     
     
     
     showgrid="false"
     units="mm"
     
     
     
     
      />
  <metadata
     id="metadata7968">
    <rdf:RDF>
      <cc:Work
         rdf:about="">
        <dc:format>image/svg+xml</dc:format>
        <dc:type
           rdf:resource="http://purl.org/dc/dcmitype/StillImage" />
        <dc:title></dc:title>
      </cc:Work>
    </rdf:RDF>
  </metadata>
  <g
     
     
     id="layer1"
     transform="translate(0,-861.37794)">
    <g
       id="copper1"
       transform="matrix(1.2499997,0,0,1.2499997,80.417165,280.90006)">
      <g
         id="copper0">
        <circle
           id="connector1pin"
           cx="1.98"
           cy="2.484"
           r="1.98"
           
           
           
           
           style="fill:none;stroke:#ffbf00;stroke-width:1.5"
           d="m 3.96,2.484 c 0,1.0935238 -0.8864762,1.98 -1.98,1.98 C 0.8864762,4.464 0,3.5775238 0,2.484 0,1.3904762 0.8864762,0.50399995 1.98,0.50399995 c 1.0935238,0 1.98,0.88647625 1.98,1.98000005 z"
           transform="translate(-60.592923,467.91902)" />
        <circle
           id="dnc3pin"
           cx="9.1800003"
           cy="2.484"
           r="1.98"
           
           
           
           
           style="fill:none;stroke:#ffbf00;stroke-width:1.5"
           d="m 11.16,2.484 c 0,1.0935238 -0.886476,1.98 -1.9799997,1.98 -1.0935238,0 -1.98,-0.8864762 -1.98,-1.98 0,-1.0935238 0.8864762,-1.98000005 1.98,-1.98000005 C 10.273524,0.50399995 11.16,1.3904762 11.16,2.484 z"
           transform="translate(-60.592923,467.91902)" />
        <circle
           id="connector5pin"
           cx="16.884001"
           cy="2.484"
           r="1.98"
           
           
           
           
           style="fill:none;stroke:#ffbf00;stroke-width:1.5"
           d="m 18.864001,2.484 c 0,1.0935238 -0.886476,1.98 -1.98,1.98 -1.093524,0 -1.98,-0.8864762 -1.98,-1.98 0,-1.0935238 0.886476,-1.98000005 1.98,-1.98000005 1.093524,0 1.98,0.88647625 1.98,1.98000005 z"
           transform="translate(-60.592923,467.91902)" />
        <circle
           id="connector7pin"
           cx="24.084"
           cy="2.484"
           r="1.98"
           
           
           
           
           style="fill:none;stroke:#ffbf00;stroke-width:1.5"
           d="m 26.064,2.484 c 0,1.0935238 -0.886477,1.98 -1.98,1.98 -1.093524,0 -1.98,-0.8864762 -1.98,-1.98 0,-1.0935238 0.886476,-1.98000005 1.98,-1.98000005 1.093523,0 1.98,0.88647625 1.98,1.98000005 z"
           transform="translate(-60.592923,467.91902)" />
        <circle
           id="connector9pin"
           cx="31.284"
           cy="2.484"
           r="1.98"
           
           
           
           
           style="fill:none;stroke:#ffbf00;stroke-width:1.5"
           d="m 33.264,2.484 c 0,1.0935238 -0.886476,1.98 -1.98,1.98 -1.093523,0 -1.98,-0.8864762 -1.98,-1.98 0,-1.0935238 0.886477,-1.98000005 1.98,-1.98000005 1.093524,0 1.98,0.88647625 1.98,1.98000005 z"
           transform="translate(-60.592923,467.91902)" />
        <circle
           id="connector11pin"
           cx="38.485001"
           cy="2.484"
           r="1.98"
           
           
           
           
           style="fill:none;stroke:#ffbf00;stroke-width:1.5"
           d="m 40.465001,2.484 c 0,1.0935238 -0.886477,1.98 -1.98,1.98 -1.093524,0 -1.98,-0.8864762 -1.98,-1.98 0,-1.0935238 0.886476,-1.98000005 1.98,-1.98000005 1.093523,0 1.98,0.88647625 1.98,1.98000005 z"
           transform="translate(-60.592923,467.91902)" />
        <circle
           id="dnc13pin"
           cx="45.685001"
           cy="2.484"
           r="1.98"
           
           
           
           
           style="fill:none;stroke:#ffbf00;stroke-width:1.5"
           d="m 47.665001,2.484 c 0,1.0935238 -0.886476,1.98 -1.98,1.98 -1.093523,0 -1.98,-0.8864762 -1.98,-1.98 0,-1.0935238 0.886477,-1.98000005 1.98,-1.98000005 1.093524,0 1.98,0.88647625 1.98,1.98000005 z"
           transform="translate(-60.592923,467.91902)" />
        <circle
           id="connector15pin"
           cx="52.883999"
           cy="2.484"
           r="1.98"
           
           
           
           
           style="fill:none;stroke:#ffbf00;stroke-width:1.5"
           d="m 54.863999,2.484 c 0,1.0935238 -0.886476,1.98 -1.98,1.98 -1.093524,0 -1.98,-0.8864762 -1.98,-1.98 0,-1.0935238 0.886476,-1.98000005 1.98,-1.98000005 1.093524,0 1.98,0.88647625 1.98,1.98000005 z"
           transform="translate(-60.592923,467.91902)" />
        <circle
           id="connector17pin"
           cx="60.084"
           cy="2.484"
           r="1.98"
           
           
           
           
           style="fill:none;stroke:#ffbf00;stroke-width:1.5"
           d="m 62.064,2.484 c 0,1.0935238 -0.886477,1.98 -1.98,1.98 -1.093524,0 -1.98,-0.8864762 -1.98,-1.98 0,-1.0935238 0.886476,-1.98000005 1.98,-1.98000005 1.093523,0 1.98,0.88647625 1.98,1.98000005 z"
           transform="translate(-60.592923,467.91902)" />
        <circle
           id="dnc19pin"
           cx="67.283997"
           cy="2.484"
           r="1.98"
           
           
           
           
           style="fill:none;stroke:#ffbf00;stroke-width:1.5"
           d="m 69.263997,2.484 c 0,1.0935238 -0.886477,1.98 -1.98,1.98 -1.093524,0 -1.98,-0.8864762 -1.98,-1.98 0,-1.0935238 0.886476,-1.98000005 1.98,-1.98000005 1.093523,0 1.98,0.88647625 1.98,1.98000005 z"
           transform="translate(-60.592923,467.91902)" />
        <circle
           transform="translate(-39.039706,467.89043)"
           id="connector21pin"
           cx="52.883999"
           cy="2.484"
           r="1.98"
           
           
           
           
           style="fill:none;stroke:#ffbf00;stroke-width:1.5"
           d="m 54.863999,2.484 c 0,1.0935238 -0.886476,1.98 -1.98,1.98 -1.093524,0 -1.98,-0.8864762 -1.98,-1.98 0,-1.0935238 0.886476,-1.98000005 1.98,-1.98000005 1.093524,0 1.98,0.88647625 1.98,1.98000005 z" />
        <circle
           transform="translate(-39.039706,467.89043)"
           id="connector23pin"
           cx="60.084"
           cy="2.484"
           r="1.98"
           
           
           
           
           style="fill:none;stroke:#ffbf00;stroke-width:1.5"
           d="m 62.064,2.484 c 0,1.0935238 -0.886477,1.98 -1.98,1.98 -1.093524,0 -1.98,-0.8864762 -1.98,-1.98 0,-1.0935238 0.886476,-1.98000005 1.98,-1.98000005 1.093523,0 1.98,0.88647625 1.98,1.98000005 z" />
        <circle
           transform="translate(-39.039706,467.89043)"
           id="connector25pin"
           cx="67.283997"
           cy="2.484"
           r="1.98"
           
           
           
           
           style="fill:none;stroke:#ffbf00;stroke-width:1.5"
           d="m 69.263997,2.484 c 0,1.0935238 -0.886477,1.98 -1.98,1.98 -1.093524,0 -1.98,-0.8864762 -1.98,-1.98 0,-1.0935238 0.886476,-1.98000005 1.98,-1.98000005 1.093523,0 1.98,0.88647625 1.98,1.98000005 z" />
        <circle
           transform="translate(-60.531669,475.09702)"
           id="connector0pin"
           cx="1.98"
           cy="2.484"
           r="1.98"
           
           
           
           
           style="fill:none;stroke:#ffbf00;stroke-width:1.5"
           d="m 3.96,2.484 c 0,1.0935238 -0.8864762,1.98 -1.98,1.98 C 0.8864762,4.464 0,3.5775238 0,2.484 0,1.3904762 0.8864762,0.50399995 1.98,0.50399995 c 1.0935238,0 1.98,0.88647625 1.98,1.98000005 z" />
        <circle
           transform="translate(-60.531669,475.09702)"
           id="connector2pin"
           cx="9.1800003"
           cy="2.484"
           r="1.98"
           
           
           
           
           style="fill:none;stroke:#ffbf00;stroke-width:1.5"
           d="m 11.16,2.484 c 0,1.0935238 -0.886476,1.98 -1.9799997,1.98 -1.0935238,0 -1.98,-0.8864762 -1.98,-1.98 0,-1.0935238 0.8864762,-1.98000005 1.98,-1.98000005 C 10.273524,0.50399995 11.16,1.3904762 11.16,2.484 z" />
        <circle
           transform="translate(-60.531669,475.09702)"
           id="connector4pin"
           cx="16.884001"
           cy="2.484"
           r="1.98"
           
           
           
           
           style="fill:none;stroke:#ffbf00;stroke-width:1.5"
           d="m 18.864001,2.484 c 0,1.0935238 -0.886476,1.98 -1.98,1.98 -1.093524,0 -1.98,-0.8864762 -1.98,-1.98 0,-1.0935238 0.886476,-1.98000005 1.98,-1.98000005 1.093524,0 1.98,0.88647625 1.98,1.98000005 z" />
        <circle
           transform="translate(-60.531669,475.09702)"
           id="connector6pin"
           cx="24.084"
           cy="2.484"
           r="1.98"
           
           
           
           
           style="fill:none;stroke:#ffbf00;stroke-width:1.5"
           d="m 26.064,2.484 c 0,1.0935238 -0.886477,1.98 -1.98,1.98 -1.093524,0 -1.98,-0.8864762 -1.98,-1.98 0,-1.0935238 0.886476,-1.98000005 1.98,-1.98000005 1.093523,0 1.98,0.88647625 1.98,1.98000005 z" />
        <circle
           transform="translate(-60.531669,475.09702)"
           id="dnc8pin"
           cx="31.284"
           cy="2.484"
           r="1.98"
           
           
           
           
           style="fill:none;stroke:#ffbf00;stroke-width:1.5"
           d="m 33.264,2.484 c 0,1.0935238 -0.886476,1.98 -1.98,1.98 -1.093523,0 -1.98,-0.8864762 -1.98,-1.98 0,-1.0935238 0.886477,-1.98000005 1.98,-1.98000005 1.093524,0 1.98,0.88647625 1.98,1.98000005 z" />
        <circle
           transform="translate(-60.531669,475.09702)"
           id="connector10pin"
           cx="38.485001"
           cy="2.484"
           r="1.98"
           
           
           
           
           style="fill:none;stroke:#ffbf00;stroke-width:1.5"
           d="m 40.465001,2.484 c 0,1.0935238 -0.886477,1.98 -1.98,1.98 -1.093524,0 -1.98,-0.8864762 -1.98,-1.98 0,-1.0935238 0.886476,-1.98000005 1.98,-1.98000005 1.093523,0 1.98,0.88647625 1.98,1.98000005 z" />
        <circle
           transform="translate(-60.531669,475.09702)"
           id="connector12pin"
           cx="45.685001"
           cy="2.484"
           r="1.98"
           
           
           
           
           style="fill:none;stroke:#ffbf00;stroke-width:1.5"
           d="m 47.665001,2.484 c 0,1.0935238 -0.886476,1.98 -1.98,1.98 -1.093523,0 -1.98,-0.8864762 -1.98,-1.98 0,-1.0935238 0.886477,-1.98000005 1.98,-1.98000005 1.093524,0 1.98,0.88647625 1.98,1.98000005 z" />
        <circle
           transform="translate(-60.531669,475.09702)"
           id="connector14pin"
           cx="52.883999"
           cy="2.484"
           r="1.98"
           
           
           
           
           style="fill:none;stroke:#ffbf00;stroke-width:1.5"
           d="m 54.863999,2.484 c 0,1.0935238 -0.886476,1.98 -1.98,1.98 -1.093524,0 -1.98,-0.8864762 -1.98,-1.98 0,-1.0935238 0.886476,-1.98000005 1.98,-1.98000005 1.093524,0 1.98,0.88647625 1.98,1.98000005 z" />
        <circle
           transform="translate(-60.531669,475.09702)"
           id="dnc16pin"
           cx="60.084"
           cy="2.484"
           r="1.98"
           
           
           
           
           style="fill:none;stroke:#ffbf00;stroke-width:1.5"
           d="m 62.064,2.484 c 0,1.0935238 -0.886477,1.98 -1.98,1.98 -1.093524,0 -1.98,-0.8864762 -1.98,-1.98 0,-1.0935238 0.886476,-1.98000005 1.98,-1.98000005 1.093523,0 1.98,0.88647625 1.98,1.98000005 z" />
        <circle
           transform="translate(-60.531669,475.09702)"
           id="connector18pin"
           cx="67.283997"
           cy="2.484"
           r="1.98"
           
           
           
           
           style="fill:none;stroke:#ffbf00;stroke-width:1.5"
           d="m 69.263997,2.484 c 0,1.0935238 -0.886477,1.98 -1.98,1.98 -1.093524,0 -1.98,-0.8864762 -1.98,-1.98 0,-1.0935238 0.886476,-1.98000005 1.98,-1.98000005 1.093523,0 1.98,0.88647625 1.98,1.98000005 z" />
        <circle
           transform="translate(-38.978452,475.06844)"
           id="connector20pin"
           cx="52.883999"
           cy="2.484"
           r="1.98"
           
           
           
           
           style="fill:none;stroke:#ffbf00;stroke-width:1.5"
           d="m 54.863999,2.484 c 0,1.0935238 -0.886476,1.98 -1.98,1.98 -1.093524,0 -1.98,-0.8864762 -1.98,-1.98 0,-1.0935238 0.886476,-1.98000005 1.98,-1.98000005 1.093524,0 1.98,0.88647625 1.98,1.98000005 z" />
        <circle
           transform="translate(-38.978452,475.06844)"
           id="connector22pin"
           cx="60.084"
           cy="2.484"
           r="1.98"
           
           
           
           
           style="fill:none;stroke:#ffbf00;stroke-width:1.5"
           d="m 62.064,2.484 c 0,1.0935238 -0.886477,1.98 -1.98,1.98 -1.093524,0 -1.98,-0.8864762 -1.98,-1.98 0,-1.0935238 0.886476,-1.98000005 1.98,-1.98000005 1.093523,0 1.98,0.88647625 1.98,1.98000005 z" />
        <circle
           transform="translate(-38.978452,475.06844)"
           id="dnc24pin"
           cx="67.283997"
           cy="2.484"
           r="1.98"
           
           
           
           
           style="fill:none;stroke:#ffbf00;stroke-width:1.5"
           d="m 69.263997,2.484 c 0,1.0935238 -0.886477,1.98 -1.98,1.98 -1.093524,0 -1.98,-0.8864762 -1.98,-1.98 0,-1.0935238 0.886476,-1.98000005 1.98,-1.98000005 1.093523,0 1.98,0.88647625 1.98,1.98000005 z" />
      </g>
    </g>
  </g>
</svg>
